# xmcd
#
# Track frame offsets: 
#        150
#        16558
#        30903
#        45140
#        63290
#        74530
#        88755
#        103958
#        128578
#        147403
#        165498
#        179465
#        196465
#        213893
#        233353
#        245795
#        265743
#
# Disc length: 3859 seconds
#
# Revision: 2
# Processed by: cddbd v1.5PL3 Copyright (c) Steve Scherf et al.
# Submitted via: ExactAudioCopy v0.90b4
#
DISCID=dd0f1111
DTITLE=Nina Simone - My Baby Just Cares For Me
DYEAR=1987
DGENRE=Vocal
TTITLE0=My Baby Just Care For Me
TTITLE1=Don't Smoke In Bed
TTITLE2=He's Got The Whole World In His Hand
TTITLE3=Mood Indigo
TTITLE4=He Needs Me
TTITLE5=African Mailman
TTITLE6=Love Me Or Leave Me
TTITLE7=Good Bait
TTITLE8=I Love You Porgy
TTITLE9=For All We Know
TTITLE10=Central Park Blues
TTITLE11=You'll Never Walk Alone
TTITLE12=Plain Gold Ring
TTITLE13=Little Girl Blue
TTITLE14=Don't Let Me Be Misunderstood
TTITLE15=Four Women
TTITLE16=My Baby Just Cares For Me (Special Extended Version)
EXTD=
EXTT0=
EXTT1=
EXTT2=
EXTT3=
EXTT4=
EXTT5=
EXTT6=
EXTT7=
EXTT8=
EXTT9=
EXTT10=
EXTT11=
EXTT12=
EXTT13=
EXTT14=
EXTT15=
EXTT16=
PLAYORDER=
